<?xml version="1.0" standalone="no"?>
<svg xmlns="http://www.w3.org/2000/svg" viewBox="0 0 76 65" width="76" height="65"><g fill="#2d32b4" color="#2d32b4" transform="translate(20.073 0) scale(1.4583334) "><svg width="24.0" height="24.0" x="0.0" y="0.0" viewBox="0 0 24 24"><g><g><path d="M21.934,20.854l-1.501-0.375l-0.063-0.251c0.39-0.43,0.666-0.979,0.781-1.548c0.267-0.138,0.461-0.4,0.5-0.715l0.109-0.87    c0.033-0.264-0.048-0.53-0.223-0.729c-0.054-0.062-0.116-0.116-0.183-0.161l0.026-0.53l0.092-0.092    c0.257-0.274,0.606-0.859,0.054-1.703C21.264,13.478,20.724,13,19.643,13c-0.318,0-1.037,0-1.735,0.438    c-2.058,0.072-2.3,1.181-2.3,2.019c0,0.165,0.029,0.474,0.058,0.732c-0.074,0.047-0.142,0.104-0.201,0.171    c-0.177,0.201-0.26,0.468-0.227,0.735l0.109,0.87c0.041,0.325,0.247,0.595,0.552,0.728c0.113,0.545,0.374,1.073,0.739,1.492    l-0.073,0.294l-1.501,0.375c-1.216,0.304-2.065,1.392-2.065,2.646c0,0.276,0.224,0.5,0.5,0.5h10c0.276,0,0.5-0.225,0.5-0.501    C23.999,22.246,23.15,21.158,21.934,20.854z M13.99,18.908c-0.05-0.271-0.31-0.449-0.583-0.399l-7.503,1.407L3.079,3.91    l17.014-2.835l2.103,11.913c0.047,0.272,0.307,0.453,0.579,0.405c0.272-0.048,0.454-0.307,0.405-0.579L20.992,0.413    c-0.047-0.27-0.306-0.455-0.574-0.406l-6.273,1.046L1.542,0.003c-0.135-0.014-0.268,0.033-0.37,0.121S1.008,0.338,1.001,0.473    l-1,18c-0.015,0.265,0.18,0.496,0.444,0.525l4.368,0.485l0.195,1.104c0.023,0.131,0.098,0.248,0.208,0.324    C5.299,20.969,5.398,21,5.499,21c0.031,0,0.062-0.003,0.092-0.009l8-1.5C13.863,19.44,14.041,19.179,13.99,18.908z"></path></g></g></svg></g><line x1="21.122000000000003" y1="41" x2="54.022000000000006" y2="41" stroke="#111866" stroke-linecap="round"></line><path fill="#111866" fill-rule="nonzero" d="M5.64 1.34L5.64 1.34Q6.24 1.34 6.65 1.87Q7.06 2.40 7.70 4.06L7.70 4.06Q9.22 7.97 10.66 16.32L10.66 16.32Q10.68 16.42 10.68 16.60Q10.68 16.78 10.45 16.98Q10.22 17.18 9.80 17.18Q9.38 17.18 9.10 16.98Q8.81 16.78 8.71 16.31Q8.62 15.84 8.35 14.47L8.35 14.47Q7.78 11.42 7.58 11.30L7.58 11.30Q7.30 11.14 5.68 10.94Q4.06 10.75 3.53 10.75Q3 10.75 2.90 10.85L2.90 10.85Q2.47 11.23 1.73 16.68L1.73 16.68Q1.63 17.14 0.82 17.14Q0 17.14 0 16.44L0 16.44Q0 14.71 1.27 9.84Q2.54 4.97 3.38 3.38L3.38 3.38Q4.44 1.34 5.64 1.34ZM5.54 4.01L5.54 4.01Q5.18 4.01 4.30 6.13Q3.41 8.26 3.41 8.76L3.41 8.76Q3.41 8.88 3.46 8.93L3.46 8.93Q3.65 9.12 4.97 9.26Q6.29 9.41 6.72 9.41Q7.15 9.41 7.20 9.35Q7.25 9.29 7.25 8.96Q7.25 8.64 6.60 6.32Q5.95 4.01 5.54 4.01ZM17.78 5.93L17.78 5.93L17.76 1.30Q17.76 0 18.59 0Q19.42 0 19.51 0.72L19.51 0.72Q19.56 1.03 19.63 4.49Q19.70 7.94 19.86 10.97Q20.02 13.99 20.02 16.61L20.02 16.61Q20.02 17.33 18.94 17.33L18.94 17.33Q18.22 17.33 18.22 16.32L18.22 16.32Q17.18 17.14 15.77 17.14L15.77 17.14Q13.97 17.14 12.85 15.79Q11.74 14.45 11.74 12.48Q11.74 10.51 12.54 8.80Q13.34 7.08 15.05 6.34L15.05 6.34Q16.10 5.88 17.09 5.88L17.09 5.88Q17.45 5.88 17.78 5.93ZM17.92 9.20Q17.74 8.69 17.50 8.41Q17.26 8.14 16.98 8.08Q16.70 8.02 16.32 8.02Q15.94 8.02 15.38 8.30Q14.83 8.59 14.45 9.24L14.45 9.24Q13.68 10.54 13.68 11.96Q13.68 13.39 14.24 14.29Q14.81 15.19 15.85 15.19Q16.90 15.19 17.50 14.16Q18.10 13.13 18.10 11.52L18.10 11.52Q18.10 9.72 17.92 9.20ZM27.14 5.93L27.14 5.93L27.12 1.30Q27.12 0 27.95 0Q28.78 0 28.87 0.72L28.87 0.72Q28.92 1.03 28.99 4.49Q29.06 7.94 29.22 10.97Q29.38 13.99 29.38 16.61L29.38 16.61Q29.38 17.33 28.30 17.33L28.30 17.33Q27.58 17.33 27.58 16.32L27.58 16.32Q26.54 17.14 25.13 17.14L25.13 17.14Q23.33 17.14 22.21 15.79Q21.10 14.45 21.10 12.48Q21.10 10.51 21.90 8.80Q22.70 7.08 24.41 6.34L24.41 6.34Q25.46 5.88 26.45 5.88L26.45 5.88Q26.81 5.88 27.14 5.93ZM27.28 9.20Q27.10 8.69 26.86 8.41Q26.62 8.14 26.34 8.08Q26.06 8.02 25.68 8.02Q25.30 8.02 24.74 8.30Q24.19 8.59 23.81 9.24L23.81 9.24Q23.04 10.54 23.04 11.96Q23.04 13.39 23.60 14.29Q24.17 15.19 25.21 15.19Q26.26 15.19 26.86 14.16Q27.46 13.13 27.46 11.52L27.46 11.52Q27.46 9.72 27.28 9.20ZM45.53 1.42Q45.77 1.27 46.15 1.27Q46.54 1.27 46.85 1.60Q47.16 1.92 47.16 2.35L47.16 2.35Q47.16 11.74 47.24 13.69Q47.33 15.65 47.33 15.70L47.33 15.70Q47.33 16.22 47.04 16.69Q46.75 17.16 46.40 17.16Q46.06 17.16 45.88 17.12Q45.70 17.09 45.55 17.04Q45.41 16.99 45.26 16.85L45.26 16.85L45.02 16.61Q44.93 16.51 44.77 16.24Q44.62 15.96 44.52 15.79Q44.42 15.62 44.22 15.20Q44.02 14.78 43.33 13.49Q42.65 12.19 42.10 11.16L42.10 11.16Q40.20 7.68 38.57 5.66L38.57 5.66Q38.57 13.46 38.14 16.49L38.14 16.49Q38.06 17.06 37.25 17.06L37.25 17.06Q36.86 17.06 36.61 16.87Q36.36 16.68 36.36 16.25Q36.36 15.82 36.54 11.50Q36.72 7.18 36.72 6.11Q36.72 5.04 36.72 4.75L36.72 4.75Q36.72 3.02 36.98 2.81Q37.25 2.59 37.54 2.59L37.54 2.59Q38.86 2.59 41.57 6.91L41.57 6.91Q42.10 7.75 43.58 10.43Q45.07 13.10 45.36 13.73L45.36 13.73L45.07 3.77Q45.07 1.70 45.53 1.42L45.53 1.42ZM53.30 5.98L53.30 5.98Q55.03 5.98 56.15 7.63Q57.26 9.29 57.26 11.60Q57.26 13.92 56.12 15.55Q54.98 17.18 53.10 17.18Q51.22 17.18 50.06 15.52Q48.91 13.85 48.91 11.81L48.91 11.81Q48.91 9.19 49.97 7.63L49.97 7.63Q51.10 5.98 53.30 5.98ZM53.02 7.94L53.02 7.94Q52.01 7.94 51.36 9Q50.71 10.06 50.71 11.23L50.71 11.23Q50.71 13.06 51.43 14.02Q52.15 14.98 53.06 14.98L53.06 14.98Q54.70 14.98 55.15 13.56L55.15 13.56Q55.34 12.89 55.34 11.88L55.34 11.88Q55.34 7.94 53.02 7.94ZM59.33 5.95L59.33 5.95L60.53 5.98Q60.94 5.98 60.98 5.95L60.98 5.95L60.98 1.03Q61.01 0.62 61.39 0.34Q61.78 0.05 62.11 0.05Q62.45 0.05 62.65 0.26Q62.86 0.48 62.83 0.94Q62.81 1.39 62.81 5.93L62.81 5.93L65.62 5.83Q66.34 5.83 66.34 6.67L66.34 6.67Q66.34 7.30 65.96 7.61Q65.59 7.92 65.17 7.94Q64.75 7.97 64.34 7.97L64.34 7.97L62.88 7.94Q62.88 8.93 63.08 11.83Q63.29 14.74 63.41 15.59Q63.53 16.44 63.46 16.69Q63.38 16.94 63.19 17.04L63.19 17.04Q62.88 17.18 62.35 17.18Q61.82 17.18 61.73 16.61L61.73 16.61Q61.25 13.46 61.08 7.97L61.08 7.97Q60.86 7.99 59.42 7.99Q57.98 7.99 57.98 7.15L57.98 7.15Q57.98 5.95 59.33 5.95ZM70.44 6.05L70.44 6.05Q71.71 6.05 72.86 6.79Q74.02 7.54 74.02 8.63Q74.02 9.72 73.08 10.74Q72.14 11.76 70.58 11.98L70.58 11.98Q69.91 12.07 68.57 12.07L68.57 12.07Q68.83 14.11 69.60 14.76L69.60 14.76Q69.84 15.02 70.25 15.02L70.25 15.02Q71.74 15.02 72.74 14.08Q73.75 13.13 74.18 13.13L74.18 13.13Q74.38 13.13 74.76 13.49Q75.14 13.85 75.14 14.16L75.14 14.16Q75.14 14.78 73.63 15.96L73.63 15.96Q72.96 16.51 72.01 16.88Q71.06 17.26 70.25 17.26L70.25 17.26Q68.16 17.26 67.18 14.57L67.18 14.57Q66.55 12.91 66.55 10.92Q66.55 8.93 67.49 7.49Q68.42 6.05 70.44 6.05ZM70.56 7.70L70.56 7.70Q69.65 7.70 69 8.74L69 8.74Q68.76 9.10 68.54 10.37L68.54 10.37Q71.90 10.37 71.90 8.71L71.90 8.71Q71.90 7.70 70.56 7.70Z" transform="translate(0, 47)"></path></svg>